<?xml version="1.0" ?><!DOCTYPE svg  PUBLIC '-//W3C//DTD SVG 1.1//EN'  'http://www.w3.org/Graphics/SVG/1.1/DTD/svg11.dtd'><svg viewBox="0 0 512 512" xmlns="http://www.w3.org/2000/svg" xmlns:xlink="http://www.w3.org/1999/xlink"><style>:root>svg{display:none}:root>svg:target{display:block}</style><svg id="allergy-food-label-5-svgrepo-com" version="1.1" xml:space="preserve" viewBox="0 0 512 512" xmlns="http://www.w3.org/2000/svg"><style>.ast0,.ast1{fill:none;stroke:#000;stroke-width:16}.ast1{stroke-linecap:round}</style><path class="ast0" id="aXMLID_5_" d="M130 382l-55 55"/><path class="ast0" id="aXMLID_4_" d="M437 75l-55 55"/><g id="aXMLID_1_"><path d="M256 16c32.4 0 63.8 6.3 93.4 18.9C378 47 403.6 64.3 425.7 86.3c22 22 39.4 47.7 51.4 76.3 12.5 29.6 18.9 61 18.9 93.4s-6.3 63.8-18.9 93.4c-12.1 28.6-29.4 54.2-51.4 76.3-22 22-47.7 39.4-76.3 51.4-29.6 12.5-61 18.9-93.4 18.9s-63.8-6.3-93.4-18.9c-28.6-12.1-54.2-29.4-76.3-51.4-22-22-39.4-47.7-51.4-76.3C22.3 319.8 16 288.4 16 256s6.3-63.8 18.9-93.4C47 134 64.3 108.4 86.3 86.3c22-22 47.7-39.4 76.3-51.4C192.2 22.3 223.6 16 256 16m0-16C114.6 0 0 114.6 0 256s114.6 256 256 256 256-114.6 256-256S397.4 0 256 0z" id="aXMLID_14_"/></g><path class="ast0" d="M254.9 381.3l156.3-.6c5.7 0 8.3-7.1 4-10.9-18.1-16-46.7-39.2-58.9-73.2" id="aXMLID_819_"/><path class="ast1" d="M245.1 258.9c.9-15.1 12.8-24.3 28-23.4 18.9 1.1 32.7 18.5 31.6 37.4-1.4 23.6-22 42.2-45.6 40.7-29.5-1.8-52.1-26.8-50.3-56.3 2.2-36.9 33.8-64.8 70.7-62.6 46.1 2.8 81.2 42.5 78.4 88.6-3.5 57.6-45.4 101.5-103 98.1C182.9 377 140 317 140 243.1v-74.2c0-15.1 3.9-33.4 20.1-38.9 16.8-5.6 33.2 11.1 36 26.4.6 3.4 12.7 100.2 12.8 101.1" id="aXMLID_818_"/><path class="ast1" d="M174.2 130.2s-21.1-16.7-6.7-43.7" id="aXMLID_817_"/><path class="ast1" d="M142.7 146.1s-28.4-23-14-50" id="aXMLID_816_"/></svg><svg viewBox="0 0 512 512" id="basic-connection-internet-2-svgrepo-com" xmlns="http://www.w3.org/2000/svg"><style>.bst0{fill:#333}</style><g id="bLayer_2"><path class="bst0" d="M78.11 107.49C131.94 76.09 193.46 59.5 256 59.5s124.06 16.59 177.89 47.99a15.93 15.93 0 008.05 2.18c5.5 0 10.86-2.84 13.84-7.94 4.45-7.63 1.87-17.43-5.76-21.88C391.29 45.6 324.2 27.5 256 27.5S120.71 45.6 61.99 79.85c-7.63 4.45-10.21 14.25-5.76 21.88 4.45 7.63 14.25 10.21 21.88 5.76zM391.86 193.41c8.84 0 15.99-7.16 15.99-16 0-6.05-3.36-11.32-8.32-14.04C356 138.33 306.37 125.09 256 125.09c-50.32 0-99.88 13.2-143.39 38.19-.02.01-.04.02-.05.03-.07.04-.14.08-.2.12-.33.19-.66.39-.98.59-.11.07-.23.15-.34.23-.34.24-.68.48-1 .75l-.16.13c-.31.26-.61.54-.9.82-.11.11-.22.21-.32.32-.23.24-.46.49-.68.75-.08.09-.16.18-.24.28-.27.33-.51.66-.75 1.01-.1.14-.19.28-.28.42-.16.25-.31.5-.46.76-.08.15-.17.29-.25.44-.19.36-.37.73-.53 1.11-.07.16-.13.33-.2.5-.1.26-.2.52-.29.78-.06.18-.12.37-.18.56-.11.38-.21.77-.3 1.16-.04.19-.07.38-.1.57-.05.28-.09.55-.13.83a13.478 13.478 0 00-.12 1.56c0 .14-.02.27-.02.41 0 8.84 7.16 16 16 16h.01c.48 0 .96-.03 1.43-.07.13-.01.26-.02.38-.04.45-.05.89-.11 1.33-.2.12-.02.23-.05.34-.08.33-.07.66-.16.99-.26.16-.05.32-.09.48-.14.4-.13.79-.27 1.18-.43.12-.05.24-.11.36-.16.3-.13.6-.28.9-.43l.39-.21c.07-.04.14-.07.21-.11 38.76-22.36 82.97-34.17 127.86-34.17s89.1 11.82 127.86 34.17c2.44 1.39 5.21 2.13 8.01 2.13zM355.69 269.02c4.34-7.7 1.62-17.46-6.08-21.8-28.46-16.05-60.83-24.53-93.61-24.53s-65.15 8.48-93.61 24.53c-7.7 4.34-10.42 14.1-6.08 21.8 4.34 7.7 14.1 10.42 21.8 6.08 23.67-13.35 50.61-20.4 77.9-20.4s54.22 7.06 77.9 20.4c2.48 1.4 5.18 2.07 7.84 2.07 5.58 0 11-2.93 13.94-8.15zM256 324.58c-44.09 0-79.96 35.87-79.96 79.96 0 44.09 35.87 79.96 79.96 79.96s79.96-35.87 79.96-79.96c0-44.09-35.87-79.96-79.96-79.96zm0 127.92c-26.44 0-47.96-21.51-47.96-47.96s21.51-47.96 47.96-47.96 47.96 21.51 47.96 47.96S282.44 452.5 256 452.5z"/></g></svg><svg viewBox="0 0 512 512" id="basic-smile-ui-svgrepo-com" xmlns="http://www.w3.org/2000/svg"><style>.cst0{fill:#333}</style><path class="cst0" d="M256 46.66C140.38 46.66 46.66 140.38 46.66 256S140.38 465.34 256 465.34 465.34 371.62 465.34 256 371.62 46.66 256 46.66zm83.73 85.8c37.35 0 67.73 30.38 67.73 67.73 0 8.84-7.16 16-16 16s-16-7.16-16-16c0-19.7-16.03-35.73-35.73-35.73-19.7 0-35.73 16.03-35.73 35.73 0 8.84-7.16 16-16 16s-16-7.16-16-16c0-37.34 30.38-67.73 67.73-67.73zm-159.5 0c37.35 0 67.73 30.38 67.73 67.73 0 8.84-7.16 16-16 16s-16-7.16-16-16c0-19.7-16.03-35.73-35.73-35.73-19.7 0-35.73 16.03-35.73 35.73 0 8.84-7.16 16-16 16s-16-7.16-16-16c0-37.34 30.39-67.73 67.73-67.73zM256 420.19c-65.23 0-124.3-38.62-150.47-98.39-3.54-8.09.14-17.53 8.24-21.07 8.09-3.54 17.53.14 21.07 8.24 21.07 48.13 68.63 79.23 121.15 79.23s100.08-31.1 121.15-79.23c3.54-8.1 12.98-11.78 21.07-8.24 8.09 3.54 11.78 12.98 8.24 21.07-26.15 59.77-85.22 98.39-150.45 98.39z" id="cLayer_2"/></svg><svg viewBox="0 0 6.35 6.35" id="mobile-setting-ui-svgrepo-com" xmlns="http://www.w3.org/2000/svg"><path d="M3.176 2.117c-.582 0-1.059.477-1.059 1.059 0 .581.477 1.056 1.059 1.056a1.06 1.06 0 001.056-1.056c0-.582-.475-1.059-1.056-1.059zm0 .53c.295 0 .53.233.53.529 0 .295-.235.53-.53.53a.525.525 0 01-.53-.53c0-.296.234-.53.53-.53z" style="line-height:normal;font-variant-ligatures:normal;font-variant-position:normal;font-variant-caps:normal;font-variant-numeric:normal;font-variant-alternates:normal;font-feature-settings:normal;text-indent:0;text-align:start;text-decoration-line:none;text-decoration-style:solid;text-decoration-color:#000;text-transform:none;text-orientation:mixed;white-space:normal;shape-padding:0;isolation:auto;mix-blend-mode:normal;solid-color:#000;solid-opacity:1" color="#000" font-weight="400" font-family="sans-serif" overflow="visible" fill="#ff2876" paint-order="stroke fill markers"/><path d="M3.058.53c-.367 0-.629.273-.726.61-.308-.17-.686-.178-.945.081l-.166.166c-.259.259-.25.637-.082.945-.336.097-.61.36-.61.726v.234c0 .367.274.629.61.726-.168.308-.177.686.082.945l.166.166c.259.259.637.25.945.082.097.336.36.61.726.61h.234c.367 0 .629-.274.726-.61.308.168.686.177.945-.082l.166-.166c.259-.259.25-.637.082-.945.336-.097.61-.36.61-.726v-.234c0-.367-.274-.629-.61-.726.169-.308.177-.686-.082-.945l-.166-.166c-.259-.259-.637-.25-.945-.082-.097-.336-.36-.61-.726-.61zm0 .528h.234c.16 0 .28.12.28.28v.11a.265.265 0 00.172.248c.027.01.053.02.08.032a.265.265 0 00.293-.056l.077-.077a.273.273 0 01.395 0l.166.166a.273.273 0 010 .395l-.078.078a.265.265 0 00-.053.298l.034.08a.265.265 0 00.246.166h.108c.16 0 .28.12.28.28v.234c0 .16-.12.28-.28.28h-.11a.265.265 0 00-.248.172 1.58 1.58 0 01-.032.08.265.265 0 00.056.293l.077.077a.273.273 0 010 .395l-.166.166a.273.273 0 01-.395 0l-.078-.078a.265.265 0 00-.298-.053 1.58 1.58 0 01-.08.034.265.265 0 00-.166.246v.108c0 .16-.12.28-.28.28h-.234c-.16 0-.28-.12-.28-.28v-.11a.265.265 0 00-.172-.248 1.58 1.58 0 01-.08-.032.265.265 0 00-.293.056l-.077.077a.273.273 0 01-.395 0l-.166-.166a.273.273 0 010-.395l.078-.078a.265.265 0 00.053-.298 1.579 1.579 0 01-.034-.08.265.265 0 00-.246-.166h-.108c-.16 0-.28-.12-.28-.28v-.234c0-.16.12-.28.28-.28h.11a.265.265 0 00.248-.172c.01-.027.02-.053.032-.08a.265.265 0 00-.056-.293l-.077-.077a.273.273 0 010-.395l.166-.166a.273.273 0 01.395 0l.078.078a.265.265 0 00.3.052c.025-.012.052-.023.079-.034a.265.265 0 00.165-.246v-.107c0-.16.12-.28.28-.28z" style="line-height:normal;font-variant-ligatures:normal;font-variant-position:normal;font-variant-caps:normal;font-variant-numeric:normal;font-variant-alternates:normal;font-feature-settings:normal;text-indent:0;text-align:start;text-decoration-line:none;text-decoration-style:solid;text-decoration-color:#000;text-transform:none;text-orientation:mixed;white-space:normal;shape-padding:0;isolation:auto;mix-blend-mode:normal;solid-color:#000;solid-opacity:1" color="#000" font-weight="400" font-family="sans-serif" overflow="visible" fill="#00001d" paint-order="stroke fill markers"/></svg></svg>