<?xml version="1.0" ?><!DOCTYPE svg  PUBLIC '-//W3C//DTD SVG 1.1//EN'  'http://www.w3.org/Graphics/SVG/1.1/DTD/svg11.dtd'><svg viewBox="0 0 1000 1000" xmlns="http://www.w3.org/2000/svg" xmlns:xlink="http://www.w3.org/1999/xlink"><style>:root>svg{display:none}:root>svg:target{display:block}</style><svg id="allergy-food-label-5-svgrepo-com" version="1.1" xml:space="preserve" viewBox="0 0 512 512" xmlns="http://www.w3.org/2000/svg"><style>.ast0,.ast1{fill:none;stroke:#000;stroke-width:16}.ast1{stroke-linecap:round}</style><path class="ast0" id="aXMLID_5_" d="M130 382l-55 55"/><path class="ast0" id="aXMLID_4_" d="M437 75l-55 55"/><g id="aXMLID_1_"><path d="M256 16c32.4 0 63.8 6.3 93.4 18.9C378 47 403.6 64.3 425.7 86.3c22 22 39.4 47.7 51.4 76.3 12.5 29.6 18.9 61 18.9 93.4s-6.3 63.8-18.9 93.4c-12.1 28.6-29.4 54.2-51.4 76.3-22 22-47.7 39.4-76.3 51.4-29.6 12.5-61 18.9-93.4 18.9s-63.8-6.3-93.4-18.9c-28.6-12.1-54.2-29.4-76.3-51.4-22-22-39.4-47.7-51.4-76.3C22.3 319.8 16 288.4 16 256s6.3-63.8 18.9-93.4C47 134 64.3 108.4 86.3 86.3c22-22 47.7-39.4 76.3-51.4C192.2 22.3 223.6 16 256 16m0-16C114.6 0 0 114.6 0 256s114.6 256 256 256 256-114.6 256-256S397.4 0 256 0z" id="aXMLID_14_"/></g><path class="ast0" d="M254.9 381.3l156.3-.6c5.7 0 8.3-7.1 4-10.9-18.1-16-46.7-39.2-58.9-73.2" id="aXMLID_819_"/><path class="ast1" d="M245.1 258.9c.9-15.1 12.8-24.3 28-23.4 18.9 1.1 32.7 18.5 31.6 37.4-1.4 23.6-22 42.2-45.6 40.7-29.5-1.8-52.1-26.8-50.3-56.3 2.2-36.9 33.8-64.8 70.7-62.6 46.1 2.8 81.2 42.5 78.4 88.6-3.5 57.6-45.4 101.5-103 98.1C182.9 377 140 317 140 243.1v-74.2c0-15.1 3.9-33.4 20.1-38.9 16.8-5.6 33.2 11.1 36 26.4.6 3.4 12.7 100.2 12.8 101.1" id="aXMLID_818_"/><path class="ast1" d="M174.2 130.2s-21.1-16.7-6.7-43.7" id="aXMLID_817_"/><path class="ast1" d="M142.7 146.1s-28.4-23-14-50" id="aXMLID_816_"/></svg><svg viewBox="0 0 512 512" id="basic-connection-internet-2-svgrepo-com" xmlns="http://www.w3.org/2000/svg"><style>.bst0{fill:#333}</style><g id="bLayer_2"><path class="bst0" d="M78.11 107.49C131.94 76.09 193.46 59.5 256 59.5s124.06 16.59 177.89 47.99a15.93 15.93 0 008.05 2.18c5.5 0 10.86-2.84 13.84-7.94 4.45-7.63 1.87-17.43-5.76-21.88C391.29 45.6 324.2 27.5 256 27.5S120.71 45.6 61.99 79.85c-7.63 4.45-10.21 14.25-5.76 21.88 4.45 7.63 14.25 10.21 21.88 5.76zM391.86 193.41c8.84 0 15.99-7.16 15.99-16 0-6.05-3.36-11.32-8.32-14.04C356 138.33 306.37 125.09 256 125.09c-50.32 0-99.88 13.2-143.39 38.19-.02.01-.04.02-.05.03-.07.04-.14.08-.2.12-.33.19-.66.39-.98.59-.11.07-.23.15-.34.23-.34.24-.68.48-1 .75l-.16.13c-.31.26-.61.54-.9.82-.11.11-.22.21-.32.32-.23.24-.46.49-.68.75-.08.09-.16.18-.24.28-.27.33-.51.66-.75 1.01-.1.14-.19.28-.28.42-.16.25-.31.5-.46.76-.08.15-.17.29-.25.44-.19.36-.37.73-.53 1.11-.07.16-.13.33-.2.5-.1.26-.2.52-.29.78-.06.18-.12.37-.18.56-.11.38-.21.77-.3 1.16-.04.19-.07.38-.1.57-.05.28-.09.55-.13.83a13.478 13.478 0 00-.12 1.56c0 .14-.02.27-.02.41 0 8.84 7.16 16 16 16h.01c.48 0 .96-.03 1.43-.07.13-.01.26-.02.38-.04.45-.05.89-.11 1.33-.2.12-.02.23-.05.34-.08.33-.07.66-.16.99-.26.16-.05.32-.09.48-.14.4-.13.79-.27 1.18-.43.12-.05.24-.11.36-.16.3-.13.6-.28.9-.43l.39-.21c.07-.04.14-.07.21-.11 38.76-22.36 82.97-34.17 127.86-34.17s89.1 11.82 127.86 34.17c2.44 1.39 5.21 2.13 8.01 2.13zM355.69 269.02c4.34-7.7 1.62-17.46-6.08-21.8-28.46-16.05-60.83-24.53-93.61-24.53s-65.15 8.48-93.61 24.53c-7.7 4.34-10.42 14.1-6.08 21.8 4.34 7.7 14.1 10.42 21.8 6.08 23.67-13.35 50.61-20.4 77.9-20.4s54.22 7.06 77.9 20.4c2.48 1.4 5.18 2.07 7.84 2.07 5.58 0 11-2.93 13.94-8.15zM256 324.58c-44.09 0-79.96 35.87-79.96 79.96 0 44.09 35.87 79.96 79.96 79.96s79.96-35.87 79.96-79.96c0-44.09-35.87-79.96-79.96-79.96zm0 127.92c-26.44 0-47.96-21.51-47.96-47.96s21.51-47.96 47.96-47.96 47.96 21.51 47.96 47.96S282.44 452.5 256 452.5z"/></g></svg><svg viewBox="0 0 512 512" id="basic-smile-ui-svgrepo-com" xmlns="http://www.w3.org/2000/svg"><style>.cst0{fill:#333}</style><path class="cst0" d="M256 46.66C140.38 46.66 46.66 140.38 46.66 256S140.38 465.34 256 465.34 465.34 371.62 465.34 256 371.62 46.66 256 46.66zm83.73 85.8c37.35 0 67.73 30.38 67.73 67.73 0 8.84-7.16 16-16 16s-16-7.16-16-16c0-19.7-16.03-35.73-35.73-35.73-19.7 0-35.73 16.03-35.73 35.73 0 8.84-7.16 16-16 16s-16-7.16-16-16c0-37.34 30.38-67.73 67.73-67.73zm-159.5 0c37.35 0 67.73 30.38 67.73 67.73 0 8.84-7.16 16-16 16s-16-7.16-16-16c0-19.7-16.03-35.73-35.73-35.73-19.7 0-35.73 16.03-35.73 35.73 0 8.84-7.16 16-16 16s-16-7.16-16-16c0-37.34 30.39-67.73 67.73-67.73zM256 420.19c-65.23 0-124.3-38.62-150.47-98.39-3.54-8.09.14-17.53 8.24-21.07 8.09-3.54 17.53.14 21.07 8.24 21.07 48.13 68.63 79.23 121.15 79.23s100.08-31.1 121.15-79.23c3.54-8.1 12.98-11.78 21.07-8.24 8.09 3.54 11.78 12.98 8.24 21.07-26.15 59.77-85.22 98.39-150.45 98.39z" id="cLayer_2"/></svg><svg version="1.0" viewBox="0 0 512 512" id="facebook-4-512" xmlns="http://www.w3.org/2000/svg"/><svg viewBox="0 0 512 512" fill-rule="#fff" clip-rule="#fff" stroke-linejoin="round" stroke-miterlimit="2" id="fb" xmlns="http://www.w3.org/2000/svg"><path d="M512 257.555c0-141.385-114.615-256-256-256S0 116.17 0 257.555c0 127.777 93.616 233.685 216 252.89v-178.89h-65v-74h65v-56.4c0-64.16 38.219-99.6 96.695-99.6 28.009 0 57.305 5 57.305 5v63h-32.281c-31.801 0-41.719 19.733-41.719 39.978v48.022h71l-11.35 74H296v178.89c122.385-19.205 216-125.113 216-252.89z"/></svg><svg viewBox="0 0 512 512" fill-rule="#fff" clip-rule="#fff" stroke-linejoin="round" stroke-miterlimit="2" id="inst" xmlns="http://www.w3.org/2000/svg"><path d="M256 0c141.29 0 256 114.71 256 256 0 141.29-114.71 256-256 256C114.71 512 0 397.29 0 256 0 114.71 114.71 0 256 0zm0 96c-43.453 0-48.902.184-65.968.963-17.03.777-28.661 3.482-38.839 7.437-10.521 4.089-19.444 9.56-28.339 18.455-8.895 8.895-14.366 17.818-18.455 28.339-3.955 10.177-6.659 21.808-7.437 38.838C96.184 207.098 96 212.547 96 256s.184 48.902.962 65.968c.778 17.03 3.482 28.661 7.437 38.838 4.089 10.521 9.56 19.444 18.455 28.34 8.895 8.895 17.818 14.366 28.339 18.455 10.178 3.954 21.809 6.659 38.839 7.436 17.066.779 22.515.963 65.968.963s48.902-.184 65.968-.963c17.03-.777 28.661-3.482 38.838-7.436 10.521-4.089 19.444-9.56 28.34-18.455 8.895-8.896 14.366-17.819 18.455-28.34 3.954-10.177 6.659-21.808 7.436-38.838.779-17.066.963-22.515.963-65.968s-.184-48.902-.963-65.968c-.777-17.03-3.482-28.661-7.436-38.838-4.089-10.521-9.56-19.444-18.455-28.339-8.896-8.895-17.819-14.366-28.34-18.455-10.177-3.955-21.808-6.66-38.838-7.437C304.902 96.184 299.453 96 256 96zm0 28.829c42.722 0 47.782.163 64.654.933 15.6.712 24.071 3.318 29.709 5.509 7.469 2.902 12.799 6.37 18.397 11.969 5.6 5.598 9.067 10.929 11.969 18.397 2.191 5.638 4.798 14.109 5.509 29.709.77 16.872.933 21.932.933 64.654 0 42.722-.163 47.782-.933 64.654-.711 15.6-3.318 24.071-5.509 29.709-2.902 7.469-6.369 12.799-11.969 18.397-5.598 5.6-10.928 9.067-18.397 11.969-5.638 2.191-14.109 4.798-29.709 5.509-16.869.77-21.929.933-64.654.933-42.725 0-47.784-.163-64.654-.933-15.6-.711-24.071-3.318-29.709-5.509-7.469-2.902-12.799-6.369-18.398-11.969-5.599-5.598-9.066-10.928-11.968-18.397-2.191-5.638-4.798-14.109-5.51-29.709-.77-16.872-.932-21.932-.932-64.654 0-42.722.162-47.782.932-64.654.712-15.6 3.319-24.071 5.51-29.709 2.902-7.468 6.369-12.799 11.968-18.397 5.599-5.599 10.929-9.067 18.398-11.969 5.638-2.191 14.109-4.797 29.709-5.509 16.872-.77 21.932-.933 64.654-.933zm0 49.009c-45.377 0-82.162 36.785-82.162 82.162 0 45.377 36.785 82.162 82.162 82.162 45.377 0 82.162-36.785 82.162-82.162 0-45.377-36.785-82.162-82.162-82.162zm0 135.495c-29.455 0-53.333-23.878-53.333-53.333s23.878-53.333 53.333-53.333 53.333 23.878 53.333 53.333-23.878 53.333-53.333 53.333zm104.609-138.741c0 10.604-8.597 19.199-19.201 19.199-10.603 0-19.199-8.595-19.199-19.199 0-10.604 8.596-19.2 19.199-19.2 10.604 0 19.201 8.596 19.201 19.2z"/></svg><svg data-bbox="0 0 200 200" aria-hidden="true" viewBox="0 0 200 200" id="ni" xmlns="http://www.w3.org/2000/svg"><path d="M200 100c0 55.228-44.772 100-100 100S0 155.228 0 100 44.772 0 100 0s100 44.772 100 100z"/></svg><svg viewBox="0 0 512 512" id="tw" xmlns="http://www.w3.org/2000/svg"><path d="M256 46.531c-115.975 0-210 93.784-210 209.465 0 115.689 94.025 209.473 210 209.473 115.982 0 210-93.783 210-209.473 0-115.681-94.018-209.465-210-209.465zM358.624 203.37c.099 2.267.151 4.556.151 6.845 0 69.975-53.259 150.664-150.658 150.664-29.909 0-57.739-8.764-81.172-23.793 4.142.488 8.358.744 12.635.744 24.803 0 47.634-8.471 65.758-22.672-23.169-.422-42.724-15.738-49.463-36.768 3.238.617 6.551.947 9.962.947 4.827 0 9.51-.646 13.953-1.859-24.224-4.863-42.476-26.264-42.476-51.918v-.67a52.756 52.756 0 0023.99 6.626c-14.209-9.495-23.561-25.707-23.561-44.08a52.748 52.748 0 017.168-26.618c26.121 32.04 65.133 53.116 109.145 55.329a53.177 53.177 0 01-1.37-12.07c0-29.246 23.711-52.95 52.95-52.95 15.232 0 28.99 6.431 38.65 16.724a106.158 106.158 0 0033.629-12.854c-3.953 12.364-12.35 22.74-23.282 29.298a105.726 105.726 0 0030.413-8.343 107.566 107.566 0 01-26.422 27.418z" fill-rule="#fff" clip-rule="#fff"/></svg><svg id="vk" version="1.1" viewBox="0 0 1000 1000" xml:space="preserve" xmlns="http://www.w3.org/2000/svg"><style>.ist0{fill:#000}.ist1{fill-rule:evenodd;clip-rule:evenodd;fill:#fff}</style><path class="ist0" d="M500 1000C223.9 1000 0 776.1 0 500S223.9 0 500 0s500 223.9 500 500-223.9 500-500 500z"/><path class="ist1" d="M819 344.5c4.6-15.5 0-26.8-22.1-26.8H724c-18.5 0-27.1 9.8-31.7 20.6 0 0-37.1 90.4-89.6 149.1-17 17-24.7 22.4-34 22.4-4.6 0-11.3-5.4-11.3-20.9V344.5c0-18.5-5.4-26.8-20.8-26.8H422c-11.6 0-18.6 8.6-18.6 16.8 0 17.6 26.3 21.6 29 71.1V513c0 23.5-4.3 27.8-13.5 27.8-24.7 0-84.8-90.8-120.5-194.7-7-20.2-14-28.3-32.6-28.3h-72.9c-20.8 0-25 9.8-25 20.6 0 19.3 24.7 115.1 115.1 241.8 60.3 86.5 145.1 133.4 222.4 133.4 46.3 0 52.1-10.4 52.1-28.4v-65.4c0-20.8 4.4-25 19.1-25 10.8 0 29.4 5.4 72.6 47.1 49.4 49.4 57.6 71.6 85.4 71.6h72.9c20.8 0 31.2-10.4 25.2-31-6.6-20.5-30.2-50.2-61.5-85.5-17-20.1-42.5-41.7-50.2-52.5-10.8-13.9-7.7-20.1 0-32.4-.1 0 88.7-125.1 98-167.6z" id="iLogo"/></svg></svg>