<?xml version="1.0" encoding="utf-8"?><svg viewBox="0 0 24 24" xmlns="http://www.w3.org/2000/svg" xmlns:xlink="http://www.w3.org/1999/xlink"><style>:root>svg{display:none}:root>svg:target{display:block}</style><svg viewBox="0 0 24 24" id="inst" xmlns="http://www.w3.org/2000/svg"><path d="M15.233 5.488c-.843-.038-1.097-.046-3.233-.046s-2.389.008-3.232.046c-2.17.099-3.181 1.127-3.279 3.279-.039.844-.048 1.097-.048 3.233s.009 2.389.047 3.233c.099 2.148 1.106 3.18 3.279 3.279.843.038 1.097.047 3.233.047 2.137 0 2.39-.008 3.233-.046 2.17-.099 3.18-1.129 3.279-3.279.038-.844.046-1.097.046-3.233s-.008-2.389-.046-3.232c-.099-2.153-1.111-3.182-3.279-3.281zM12 16.108a4.108 4.108 0 110-8.215 4.108 4.108 0 010 8.215zm4.271-7.418a.96.96 0 110-1.92.96.96 0 010 1.92zM14.667 12a2.667 2.667 0 11-5.334 0 2.667 2.667 0 015.334 0zM19 0H5a5 5 0 00-5 5v14a5 5 0 005 5h14a5 5 0 005-5V5a5 5 0 00-5-5zm.952 15.298c-.132 2.909-1.751 4.521-4.653 4.654-.854.039-1.126.048-3.299.048s-2.444-.009-3.298-.048c-2.908-.133-4.52-1.748-4.654-4.654C4.009 14.445 4 14.173 4 12c0-2.172.009-2.445.048-3.298.134-2.908 1.748-4.521 4.654-4.653C9.556 4.009 9.827 4 12 4s2.445.009 3.299.048c2.908.133 4.523 1.751 4.653 4.653.039.854.048 1.127.048 3.299 0 2.173-.009 2.445-.048 3.298z"/></svg><svg viewBox="0 0 24 24" id="pint" xmlns="http://www.w3.org/2000/svg"><path d="M19 0H5a5 5 0 00-5 5v14a5 5 0 005 5h14a5 5 0 005-5V5a5 5 0 00-5-5zm-7 20c-.825 0-1.62-.125-2.369-.357.326-.531.813-1.402.994-2.098l.499-1.901c.261.498 1.023.918 1.833.918 2.414 0 4.152-2.219 4.152-4.976 0-2.643-2.157-4.62-4.933-4.62-3.452 0-5.286 2.317-5.286 4.841 0 1.174.625 2.634 1.624 3.1.151.07.232.039.268-.107l.222-.907a.24.24 0 00-.056-.23c-.331-.4-.595-1.138-.595-1.825 0-1.765 1.336-3.472 3.612-3.472 1.965 0 3.341 1.339 3.341 3.255 0 2.164-1.093 3.663-2.515 3.663-.786 0-1.374-.649-1.185-1.446.226-.951.663-1.977.663-2.664 0-.614-.33-1.127-1.012-1.127-.803 0-1.448.831-1.448 1.943 0 .709.239 1.188.239 1.188s-.793 3.353-.938 3.977c-.161.691-.098 1.662-.028 2.294A8 8 0 1112 20z"/></svg><svg viewBox="0 0 24 24" id="yt" xmlns="http://www.w3.org/2000/svg"><path d="M10 9.333l5.333 2.662L10 14.667V9.333zM24 5v14a5 5 0 01-5 5H5a5 5 0 01-5-5V5a5 5 0 015-5h14a5 5 0 015 5zm-4 7c-.02-4.123-.323-5.7-2.923-5.877-2.403-.164-7.754-.163-10.153 0C4.326 6.3 4.02 7.87 4 12c.02 4.123.323 5.7 2.923 5.877 2.399.163 7.75.164 10.153 0C19.674 17.7 19.98 16.13 20 12z"/></svg></svg>